# xmcd CD database file
#
# Track frame offsets:
#	150
#	18752
#	44051
#	59607
#	82581
#	97567
#	120450
#	137825
#	160107
#
# Disc length: 2448 seconds
#
# Revision: 1
# Processed by: cddbd v1.5.2PL0 Copyright (c) Steve Scherf et al.
# Submitted via: CDex 1.70beta2
#
DISCID=62098e09
DTITLE=C-CLAYS - 雪月華～SETU GEKKA～_Disc2
DYEAR=2008
DGENRE=東方アレンジ
TTITLE0=風の循環　～ Wind Tour
TTITLE1=天狗の手帖　～ Mysterious Note
TTITLE2=Cloud of Truth ／ 風神少女
TTITLE3=レトロスペクティブ京都
TTITLE4=U.N.オーエンは彼女なのか？
TTITLE5=天狗が見ている　～ Black Eyes
TTITLE6=フラワリングナイト
TTITLE7=幽雅に咲かせ、墨染の桜
TTITLE8=Moon Tale - 竹取飛翔
EXTD=YEAR: 2008
EXTT0=
EXTT1=
EXTT2=
EXTT3=
EXTT4=
EXTT5=
EXTT6=
EXTT7=
EXTT8=
PLAYORDER=
